<svg width="17" height="17" viewBox="0 0 17 17" fill="none" xmlns="http://www.w3.org/2000/svg">
<path d="M11.022 2.6619V2.09899C11.022 1.68139 10.8562 1.28089 10.5609 0.985597C10.2656 0.690307 9.86507 0.524414 9.44747 0.524414H7.34803C6.93043 0.524414 6.52993 0.690307 6.23463 0.985597C5.93934 1.28089 5.77345 1.68139 5.77345 2.09899V2.6619C4.89961 2.78927 4.10072 3.22662 3.52258 3.89413C2.94444 4.56164 2.62561 5.41479 2.6243 6.29786V14.1707C2.6243 14.4492 2.73489 14.7162 2.93175 14.913C3.12861 15.1099 3.39561 15.2205 3.67402 15.2205H13.1215C13.3999 15.2205 13.6669 15.1099 13.8637 14.913C14.0606 14.7162 14.1712 14.4492 14.1712 14.1707V6.29786C14.1699 5.41479 13.8511 4.56164 13.2729 3.89413C12.6948 3.22662 11.8959 2.78927 11.022 2.6619ZM7.34803 1.57413H9.44747C9.58667 1.57413 9.72017 1.62943 9.8186 1.72786C9.91703 1.82629 9.97232 1.95979 9.97232 2.09899V2.62385H6.82317V2.09899C6.82317 1.95979 6.87847 1.82629 6.9769 1.72786C7.07533 1.62943 7.20883 1.57413 7.34803 1.57413ZM11.022 10.4967H5.77345V9.97188C5.77345 9.83267 5.82875 9.69917 5.92718 9.60074C6.02561 9.50231 6.15911 9.44702 6.29831 9.44702H10.4972C10.6364 9.44702 10.7699 9.50231 10.8683 9.60074C10.9667 9.69917 11.022 9.83267 11.022 9.97188V10.4967ZM5.77345 11.5465H8.92261V12.0713C8.92261 12.2105 8.9779 12.344 9.07633 12.4424C9.17476 12.5409 9.30826 12.5962 9.44747 12.5962C9.58667 12.5962 9.72017 12.5409 9.8186 12.4424C9.91703 12.344 9.97232 12.2105 9.97232 12.0713V11.5465H11.022V14.1707H5.77345V11.5465ZM13.1215 14.1707H12.0718V9.97188C12.0718 9.55427 11.9059 9.15377 11.6106 8.85848C11.3153 8.56319 10.9148 8.3973 10.4972 8.3973H6.29831C5.88071 8.3973 5.48021 8.56319 5.18492 8.85848C4.88963 9.15377 4.72373 9.55427 4.72373 9.97188V14.1707H3.67402V6.29786C3.67402 5.60186 3.9505 4.93436 4.44265 4.44221C4.93481 3.95006 5.6023 3.67357 6.29831 3.67357H10.4972C11.1932 3.67357 11.8607 3.95006 12.3528 4.44221C12.845 4.93436 13.1215 5.60186 13.1215 6.29786V14.1707ZM9.97232 5.773C9.97232 5.91221 9.91703 6.04571 9.8186 6.14414C9.72017 6.24257 9.58667 6.29786 9.44747 6.29786H7.34803C7.20883 6.29786 7.07533 6.24257 6.9769 6.14414C6.87847 6.04571 6.82317 5.91221 6.82317 5.773C6.82317 5.6338 6.87847 5.5003 6.9769 5.40187C7.07533 5.30344 7.20883 5.24815 7.34803 5.24815H9.44747C9.58667 5.24815 9.72017 5.30344 9.8186 5.40187C9.91703 5.5003 9.97232 5.6338 9.97232 5.773Z" fill="#064379"/>
</svg>
