<svg width="18" height="18" viewBox="0 0 18 18" fill="none" xmlns="http://www.w3.org/2000/svg">
<path d="M8.8332 1.65674C7.41374 1.65674 6.02615 2.07766 4.8459 2.86627C3.66566 3.65489 2.74577 4.77577 2.20257 6.08719C1.65936 7.3986 1.51723 8.84165 1.79416 10.2338C2.07108 11.626 2.75462 12.9048 3.75833 13.9086C4.76205 14.9123 6.04086 15.5958 7.43305 15.8727C8.82524 16.1497 10.2683 16.0075 11.5797 15.4643C12.8911 14.9211 14.012 14.0012 14.8006 12.821C15.5892 11.6407 16.0102 10.2532 16.0102 8.83369C16.0081 6.93086 15.2514 5.10654 13.9059 3.76104C12.5603 2.41553 10.736 1.65875 8.8332 1.65674ZM8.8332 14.9065C7.63212 14.9065 6.458 14.5503 5.45933 13.883C4.46067 13.2158 3.6823 12.2673 3.22266 11.1576C2.76303 10.048 2.64277 8.82695 2.87709 7.64894C3.11141 6.47093 3.68979 5.38886 4.53908 4.53957C5.38838 3.69027 6.47045 3.11189 7.64846 2.87757C8.82647 2.64325 10.0475 2.76351 11.1572 3.22315C12.2668 3.68279 13.2153 4.46115 13.8826 5.45982C14.5498 6.45849 14.906 7.6326 14.906 8.83369C14.9042 10.4437 14.2638 11.9873 13.1253 13.1258C11.9868 14.2643 10.4432 14.9047 8.8332 14.9065ZM9.93735 12.1461C9.93735 12.2925 9.87918 12.433 9.77565 12.5365C9.67212 12.64 9.53169 12.6982 9.38528 12.6982C9.09244 12.6982 8.81159 12.5819 8.60453 12.3748C8.39746 12.1677 8.28113 11.8869 8.28113 11.5941V8.83369C8.13471 8.83369 7.99429 8.77552 7.89076 8.67199C7.78722 8.56846 7.72906 8.42803 7.72906 8.28162C7.72906 8.1352 7.78722 7.99477 7.89076 7.89124C7.99429 7.78771 8.13471 7.72954 8.28113 7.72954C8.57397 7.72954 8.85481 7.84587 9.06188 8.05294C9.26895 8.26001 9.38528 8.54085 9.38528 8.83369V11.5941C9.53169 11.5941 9.67212 11.6522 9.77565 11.7558C9.87918 11.8593 9.93735 11.9997 9.93735 12.1461ZM7.72906 5.79729C7.72906 5.6335 7.77762 5.4734 7.86862 5.33721C7.95961 5.20103 8.08895 5.09489 8.24026 5.03221C8.39158 4.96954 8.55809 4.95314 8.71872 4.98509C8.87936 5.01704 9.02691 5.09591 9.14273 5.21172C9.25854 5.32754 9.33741 5.47509 9.36936 5.63573C9.40132 5.79637 9.38492 5.96287 9.32224 6.11419C9.25956 6.26551 9.15342 6.39484 9.01724 6.48583C8.88106 6.57683 8.72095 6.6254 8.55717 6.6254C8.33754 6.6254 8.12691 6.53815 7.9716 6.38285C7.8163 6.22755 7.72906 6.01691 7.72906 5.79729Z" fill="#00235E"/>
</svg>
