<svg width="18" height="16" viewBox="0 0 18 16" fill="none" xmlns="http://www.w3.org/2000/svg">
<path d="M17.685 4.56169L9.25546 0.0659379C9.17415 0.0226437 9.08345 0 8.99133 0C8.89922 0 8.80851 0.0226437 8.72721 0.0659379L0.297668 4.56169C0.207756 4.60961 0.132562 4.68107 0.0801298 4.76842C0.0276976 4.85578 0 4.95575 0 5.05763C0 5.15951 0.0276976 5.25948 0.0801298 5.34684C0.132562 5.43419 0.207756 5.50565 0.297668 5.55357L2.2477 6.59391V9.99523C2.24712 10.2713 2.34871 10.5378 2.5329 10.7434C3.45313 11.7682 5.51485 13.4872 8.99133 13.4872C10.144 13.4967 11.2881 13.2879 12.3631 12.8718V15.1731C12.3631 15.3221 12.4224 15.4651 12.5277 15.5705C12.6331 15.6758 12.7761 15.735 12.9251 15.735C13.0742 15.735 13.2171 15.6758 13.3225 15.5705C13.4279 15.4651 13.4871 15.3221 13.4871 15.1731V12.3288C14.2199 11.9058 14.8821 11.3708 15.4498 10.7434C15.634 10.5378 15.7355 10.2713 15.735 9.99523V6.59391L17.685 5.55357C17.7749 5.50565 17.8501 5.43419 17.9025 5.34684C17.955 5.25948 17.9827 5.15951 17.9827 5.05763C17.9827 4.95575 17.955 4.85578 17.9025 4.76842C17.8501 4.68107 17.7749 4.60961 17.685 4.56169ZM8.99133 12.3632C5.95178 12.3632 4.16402 10.8782 3.37164 9.99523V7.19311L8.72721 10.0493C8.80851 10.0926 8.89922 10.1153 8.99133 10.1153C9.08345 10.1153 9.17415 10.0926 9.25546 10.0493L12.3631 8.39222V11.6474C11.478 12.0605 10.3625 12.3632 8.99133 12.3632ZM14.611 9.99242C14.2742 10.3662 13.8973 10.7019 13.4871 10.9934V7.79231L14.611 7.19311V9.99242ZM13.2061 6.66908L13.1906 6.65995L9.25686 4.56169C9.12562 4.49466 8.97329 4.48186 8.8327 4.52606C8.69211 4.57026 8.5745 4.66792 8.50523 4.79799C8.43595 4.92807 8.42055 5.08016 8.46233 5.22149C8.50411 5.36281 8.59974 5.48207 8.72861 5.55357L12.0119 7.30551L8.99133 8.91625L1.75598 5.05763L8.99133 1.19901L16.2267 5.05763L13.2061 6.66908Z" fill="#00235E"/>
</svg>
