<svg width="597" height="336" viewBox="0 0 597 336" fill="none" xmlns="http://www.w3.org/2000/svg">
<rect width="597" height="336" fill="#064379"/>
<g clip-path="url(#clip0_1322_1266)">
<path d="M250.395 145.753C250.395 146.171 250.216 146.499 249.858 146.738C249.321 147.096 248.395 147.604 247.081 148.261C245.768 148.917 244.305 149.604 242.693 150.32C241.141 151.037 239.499 151.783 237.767 152.559C236.036 153.336 234.453 154.022 233.02 154.619C231.587 155.216 230.363 155.694 229.348 156.052C228.393 156.47 227.885 156.679 227.826 156.679C227.348 156.679 226.811 156.142 226.214 155.067C225.676 153.992 225.139 152.559 224.602 150.768C224.064 148.917 223.557 146.798 223.079 144.41C222.601 141.962 222.154 139.394 221.736 136.708C221.377 134.021 221.079 131.304 220.84 128.558C220.661 125.752 220.571 123.065 220.571 120.498C220.571 116.677 220.75 113.691 221.109 111.542C221.527 109.393 221.974 107.781 222.452 106.706C222.989 105.631 223.467 104.975 223.885 104.736C224.303 104.437 224.542 104.288 224.602 104.288C225.079 104.288 225.467 104.497 225.766 104.915C226.064 105.333 226.214 105.751 226.214 106.169C226.214 106.407 226.094 106.825 225.855 107.422C225.617 108.02 225.348 108.855 225.049 109.93C224.811 111.005 224.572 112.378 224.333 114.05C224.154 115.721 224.064 117.751 224.064 120.14C224.064 122.289 224.154 124.528 224.333 126.856C224.572 129.185 224.87 131.484 225.228 133.752C225.587 136.021 225.975 138.17 226.393 140.2C226.87 142.23 227.348 144.022 227.826 145.574C228.303 147.126 228.751 148.38 229.169 149.335C229.587 150.231 229.975 150.679 230.333 150.679C230.393 150.679 230.781 150.529 231.498 150.231C232.214 149.932 233.11 149.574 234.185 149.156C235.259 148.679 236.424 148.231 237.678 147.813C238.991 147.335 240.305 146.917 241.618 146.559C242.215 146.38 242.902 146.201 243.678 146.022C244.514 145.783 245.29 145.574 246.007 145.395C246.723 145.216 247.35 145.066 247.888 144.947C248.485 144.828 248.843 144.768 248.962 144.768C249.918 144.768 250.395 145.096 250.395 145.753ZM280.111 143.156C280.17 143.275 280.2 143.454 280.2 143.693C280.2 144.051 279.931 144.589 279.394 145.305C279.215 145.544 278.827 145.932 278.23 146.469C277.633 147.007 276.827 147.544 275.812 148.082C274.797 148.619 273.543 149.097 272.05 149.514C270.617 149.932 268.915 150.141 266.945 150.141C265.572 150.141 264.228 149.843 262.915 149.246C261.601 148.589 260.437 147.664 259.422 146.469C258.407 145.216 257.571 143.693 256.914 141.902C256.257 140.051 255.929 137.902 255.929 135.454C255.929 133.125 256.227 130.946 256.825 128.916C257.422 126.886 258.168 125.095 259.064 123.543C260.019 121.99 261.064 120.766 262.198 119.871C263.333 118.975 264.437 118.528 265.512 118.528C266.467 118.528 267.423 118.736 268.378 119.154C269.393 119.513 270.289 119.99 271.065 120.587C271.901 121.184 272.557 121.871 273.035 122.647C273.513 123.364 273.752 124.11 273.752 124.886C273.752 125.782 273.334 126.707 272.498 127.662C271.722 128.618 270.766 129.513 269.632 130.349C268.497 131.125 267.363 131.782 266.228 132.319C265.094 132.797 264.198 133.036 263.542 133.036C263.183 133.036 262.855 132.887 262.556 132.588C262.318 132.23 262.198 131.812 262.198 131.334C262.198 130.498 262.556 129.842 263.273 129.364C264.049 128.886 264.885 128.468 265.781 128.11C266.676 127.692 267.482 127.215 268.199 126.677C268.975 126.14 269.363 125.394 269.363 124.438C269.363 124.319 269.214 124.02 268.915 123.543C268.617 123.065 267.811 122.826 266.497 122.826C265.9 122.826 265.213 123.185 264.437 123.901C263.661 124.558 262.915 125.483 262.198 126.677C261.482 127.812 260.885 129.185 260.407 130.797C259.929 132.349 259.691 134.051 259.691 135.902C259.691 137.454 259.959 138.857 260.497 140.111C261.094 141.365 261.84 142.439 262.736 143.335C263.631 144.171 264.676 144.828 265.87 145.305C267.064 145.783 268.288 146.022 269.542 146.022C270.438 146.022 271.393 145.843 272.408 145.484C273.483 145.066 274.468 144.648 275.364 144.231C276.319 143.753 277.125 143.335 277.782 142.977C278.498 142.559 278.946 142.35 279.125 142.35C279.304 142.35 279.484 142.439 279.663 142.619C279.902 142.798 280.051 142.977 280.111 143.156ZM306.588 140.738C306.588 141.753 306.23 142.648 305.513 143.425C304.856 144.141 303.991 144.768 302.916 145.305C301.901 145.783 300.766 146.171 299.513 146.469C298.259 146.768 297.065 147.007 295.93 147.186C294.796 147.305 293.781 147.395 292.885 147.455C292.049 147.455 291.512 147.455 291.273 147.455C289.959 147.455 288.944 147.246 288.228 146.828C287.511 146.41 287.153 145.663 287.153 144.589C287.153 144.231 287.183 143.932 287.243 143.693C287.302 143.395 287.541 143.245 287.959 143.245C288.138 143.245 288.437 143.305 288.855 143.425C289.273 143.484 289.601 143.514 289.84 143.514C290.079 143.514 290.825 143.484 292.079 143.425C293.393 143.305 294.766 143.126 296.199 142.887C297.692 142.648 299.005 142.32 300.14 141.902C301.334 141.424 301.931 140.827 301.931 140.111C301.931 139.991 301.304 139.633 300.05 139.036C298.856 138.379 297.035 137.305 294.587 135.812C292.676 134.618 291.333 133.424 290.556 132.23C289.78 130.976 289.392 129.304 289.392 127.215C289.392 125.901 289.661 124.826 290.198 123.991C290.795 123.155 291.571 122.498 292.527 122.02C293.542 121.543 294.676 121.214 295.93 121.035C297.244 120.796 298.617 120.677 300.05 120.677C300.169 120.677 300.528 120.737 301.125 120.856C301.781 120.975 302.468 121.184 303.185 121.483C303.901 121.722 304.528 122.05 305.065 122.468C305.662 122.826 305.961 123.244 305.961 123.722C305.961 123.841 305.842 124.02 305.603 124.259C305.424 124.498 305.095 124.946 304.618 125.603C304.438 125.543 304.11 125.453 303.632 125.334C303.214 125.214 302.707 125.095 302.11 124.976C301.573 124.797 301.005 124.677 300.408 124.617C299.811 124.498 299.333 124.438 298.975 124.438C297.423 124.438 296.169 124.737 295.214 125.334C294.258 125.871 293.781 126.946 293.781 128.558C293.781 129.334 294.079 130.051 294.676 130.707C295.333 131.364 296.139 131.991 297.094 132.588C298.05 133.125 299.065 133.693 300.14 134.29C301.274 134.827 302.319 135.424 303.274 136.081C304.229 136.738 305.006 137.454 305.603 138.23C306.26 138.947 306.588 139.783 306.588 140.738Z" fill="white"/>
<path d="M379.319 136.83C379.319 137.904 378.811 139.248 377.796 140.86C376.841 142.412 375.527 143.934 373.856 145.427C372.184 146.92 370.243 148.203 368.034 149.278C365.825 150.293 363.526 150.801 361.138 150.801C360.063 150.801 358.929 150.621 357.735 150.263C356.54 149.905 355.376 149.398 354.242 148.741C353.107 148.024 352.092 147.188 351.197 146.233C350.301 145.218 349.644 144.084 349.226 142.83C348.868 143.188 348.42 143.785 347.883 144.621C347.405 145.457 346.868 146.323 346.271 147.218C345.674 148.054 345.017 148.8 344.3 149.457C343.584 150.054 342.837 150.353 342.061 150.353C341.285 150.353 340.628 149.965 340.091 149.189C339.613 148.353 339.225 147.457 338.927 146.502C338.628 145.487 338.419 144.532 338.3 143.636C338.18 142.74 338.121 142.233 338.121 142.113C338.121 141.397 338.33 140.054 338.748 138.083C339.165 136.053 339.792 133.964 340.628 131.814C341.464 129.665 342.509 127.754 343.763 126.083C345.077 124.411 346.599 123.575 348.331 123.575C348.987 123.575 349.405 123.874 349.584 124.471C349.823 125.008 349.943 125.545 349.943 126.083V128.769C350.241 129.008 350.54 129.187 350.838 129.307C351.197 129.366 351.495 129.486 351.734 129.665C352.032 129.784 352.241 129.993 352.361 130.292C352.54 130.59 352.63 131.068 352.63 131.725C352.63 132.143 352.6 132.531 352.54 132.889C352.48 133.188 352.45 133.486 352.45 133.785C352.45 135.337 352.57 136.859 352.809 138.352C353.048 139.845 353.525 141.188 354.242 142.382C354.958 143.517 355.943 144.472 357.197 145.248C358.451 145.964 360.123 146.323 362.213 146.323C364.84 146.323 367.049 145.785 368.84 144.711C370.691 143.576 372.214 142.352 373.408 141.039C374.662 139.666 375.647 138.442 376.363 137.367C377.08 136.233 377.677 135.665 378.155 135.665C378.931 135.665 379.319 136.053 379.319 136.83ZM347.883 132.889C347.883 132.65 347.823 132.441 347.704 132.262C347.584 132.023 347.525 131.814 347.525 131.635C347.525 131.396 347.584 131.187 347.704 131.008C347.823 130.829 347.883 130.59 347.883 130.292C347.883 130.113 347.823 129.993 347.704 129.934C347.584 129.814 347.525 129.695 347.525 129.575C346.987 129.695 346.42 130.202 345.823 131.098C345.286 131.993 344.748 133.038 344.211 134.232C343.733 135.427 343.345 136.65 343.046 137.904C342.748 139.098 342.599 140.084 342.599 140.86C342.599 141.278 342.718 141.964 342.957 142.919C343.196 143.875 343.464 144.502 343.763 144.8C344.778 142.711 345.703 140.681 346.539 138.71C347.435 136.74 347.883 134.8 347.883 132.889ZM407.289 144.442C407.289 144.8 407.17 145.158 406.931 145.517C406.692 145.875 406.393 146.203 406.035 146.502C405.737 146.8 405.379 147.069 404.961 147.308C404.602 147.487 404.274 147.576 403.976 147.576C402.96 147.576 401.647 147.368 400.035 146.95C398.482 146.472 397.229 145.755 396.273 144.8C395.258 143.785 394.363 142.591 393.586 141.218C392.81 139.785 391.944 137.695 390.989 134.949C390.332 137.576 389.556 140.173 388.66 142.74C387.825 145.308 386.451 147.666 384.541 149.815C384.421 149.935 384.242 149.995 384.003 149.995C383.585 149.995 383.138 149.786 382.66 149.368C382.182 148.95 381.943 148.532 381.943 148.114C381.943 147.696 381.884 146.741 381.764 145.248C381.705 143.696 381.615 141.994 381.496 140.143C381.376 138.233 381.257 136.322 381.137 134.412C381.078 132.441 381.048 130.829 381.048 129.575C381.048 128.978 381.078 128.202 381.137 127.247C381.197 126.232 381.376 125.366 381.675 124.65C381.734 124.53 381.943 124.292 382.302 123.933C382.72 123.575 383.167 123.396 383.645 123.396C384.063 123.396 384.302 123.665 384.362 124.202C384.421 124.739 384.451 125.336 384.451 125.993V140.143C384.451 140.442 384.481 140.86 384.541 141.397C384.66 141.934 384.809 142.322 384.988 142.561C385.645 141.128 386.242 139.457 386.78 137.546C387.377 135.576 387.944 133.725 388.481 131.993C389.019 130.202 389.556 128.71 390.093 127.516C390.631 126.262 391.168 125.635 391.706 125.635C392.303 125.635 392.78 125.754 393.139 125.993C393.497 126.232 393.795 126.71 394.034 127.426C394.333 129.157 394.572 130.71 394.751 132.083C394.93 133.397 395.139 134.591 395.378 135.665C395.676 136.74 396.064 137.755 396.542 138.71C397.079 139.606 397.796 140.442 398.691 141.218C399.527 141.994 400.453 142.561 401.468 142.919C402.543 143.278 403.468 143.457 404.244 143.457C404.602 143.457 404.991 143.397 405.408 143.278C405.826 143.099 406.125 143.009 406.304 143.009C406.543 143.009 406.752 143.218 406.931 143.636C407.17 144.054 407.289 144.323 407.289 144.442Z" fill="white"/>
<path d="M333.571 127.753C333.571 128.24 333.35 128.617 332.907 128.883C332.508 129.148 332.176 129.281 331.91 129.281C331.511 129.281 331.201 129.215 330.98 129.082C330.803 128.949 330.581 128.794 330.315 128.617C330.094 128.44 329.784 128.285 329.385 128.152C329.031 128.019 328.499 127.952 327.79 127.952C326.904 127.952 326.107 128.174 325.398 128.617C324.734 129.06 324.091 129.547 323.471 130.079C322.895 130.566 322.319 131.031 321.743 131.474C321.167 131.917 320.569 132.138 319.949 132.138C319.196 132.138 318.709 131.873 318.488 131.341C318.266 130.809 318.155 130.123 318.155 129.281C318.155 129.104 318.443 128.462 319.019 127.354C319.595 126.203 320.259 124.94 321.012 123.567C321.81 122.194 322.563 120.887 323.272 119.647C323.981 118.362 324.468 117.476 324.734 116.989C324.999 116.502 325.376 115.815 325.863 114.929C326.35 114.043 326.838 113.157 327.325 112.271C327.857 111.341 328.3 110.544 328.654 109.879C329.009 109.17 329.186 108.75 329.186 108.617C329.186 108.307 329.119 108.107 328.986 108.019C328.853 107.93 328.72 107.886 328.588 107.886C328.278 107.886 327.591 108.063 326.528 108.417C325.509 108.772 324.401 109.148 323.205 109.547C322.053 109.946 320.946 110.322 319.883 110.676C318.864 111.031 318.222 111.208 317.956 111.208C317.912 111.208 317.779 111.097 317.557 110.876C317.468 110.743 317.38 110.61 317.291 110.477C317.247 110.344 317.225 110.211 317.225 110.078C317.225 109.901 317.734 109.525 318.753 108.949C319.816 108.373 321.079 107.797 322.541 107.221C324.003 106.601 325.487 106.07 326.993 105.627C328.543 105.139 329.806 104.896 330.78 104.896C331.356 104.896 331.866 105.073 332.309 105.427C332.752 105.782 332.973 106.269 332.973 106.889C332.973 107.554 332.73 108.462 332.242 109.613C331.755 110.765 331.135 112.028 330.382 113.401C329.629 114.774 328.809 116.192 327.923 117.653C327.081 119.115 326.284 120.466 325.531 121.706C324.778 122.903 324.136 123.943 323.604 124.829C323.072 125.671 322.784 126.203 322.74 126.424C323.05 126.247 323.449 126.092 323.936 125.959C324.424 125.782 324.911 125.627 325.398 125.494C325.93 125.361 326.417 125.25 326.86 125.162C327.347 125.073 327.724 125.029 327.989 125.029C328.344 125.029 328.831 125.073 329.451 125.162C330.072 125.25 330.692 125.405 331.312 125.627C331.932 125.804 332.464 126.07 332.907 126.424C333.35 126.779 333.571 127.221 333.571 127.753Z" fill="white"/>
<path d="M205.633 180.806C205.633 182.83 205.482 184.752 205.178 186.574C204.976 188.395 204.419 190.267 203.508 192.189C202.699 194.011 201.535 195.984 200.017 198.109C198.499 200.234 196.526 202.662 194.098 205.394C191.163 208.632 187.723 211.516 183.776 214.046C179.83 216.575 175.428 217.84 170.571 217.84C167.536 217.84 164.5 217.334 161.464 216.322C158.53 215.31 155.899 213.793 153.571 211.769C151.345 209.745 149.524 207.215 148.107 204.18C146.691 201.144 145.982 197.603 145.982 193.555C145.982 187.08 147.196 180.3 149.625 173.217C152.054 166.033 155.443 158.343 159.795 150.147C162.628 144.784 165.259 140.079 167.687 136.032C170.116 131.883 172.494 128.443 174.821 125.711C177.149 122.878 179.476 120.753 181.803 119.336C184.131 117.92 186.61 117.211 189.241 117.211C191.264 117.211 192.985 117.616 194.401 118.426C195.919 119.134 196.678 120.601 196.678 122.827C196.678 123.536 196.526 124.193 196.223 124.8C195.919 125.306 195.464 125.559 194.857 125.559C194.047 125.559 193.44 125.357 193.035 124.952C192.732 124.446 191.77 124.193 190.151 124.193C187.419 124.193 184.738 125.458 182.107 127.988C179.476 130.517 176.997 133.451 174.669 136.791C172.443 140.029 170.47 143.267 168.75 146.505C167.131 149.742 165.967 152.12 165.259 153.638C164.044 156.168 162.678 159.153 161.161 162.593C159.744 166.033 158.378 169.575 157.062 173.217C155.747 176.86 154.634 180.401 153.723 183.842C152.812 187.181 152.357 189.964 152.357 192.189C152.357 195.023 152.812 197.552 153.723 199.778C154.735 201.903 156.051 203.725 157.67 205.243C159.289 206.76 161.161 207.924 163.286 208.733C165.512 209.442 167.839 209.796 170.268 209.796C173.607 209.796 176.997 208.986 180.437 207.367C183.979 205.748 187.116 203.624 189.848 200.993C192.681 198.362 194.958 195.326 196.678 191.886C198.499 188.446 199.41 184.955 199.41 181.413C199.41 177.872 198.499 174.938 196.678 172.61C194.857 170.283 192.833 169.119 190.607 169.119C189.19 169.119 188.178 169.372 187.571 169.878C187.065 170.283 186.559 170.839 186.053 171.548C185.345 172.661 184.687 173.572 184.08 174.28C183.473 174.988 182.41 175.595 180.893 176.101C178.464 176.911 176.541 177.518 175.125 177.923C173.809 178.226 172.848 178.479 172.241 178.681L171.027 178.985C170.419 178.985 169.559 178.58 168.446 177.771C167.434 176.86 166.928 176.152 166.928 175.646C166.928 173.824 167.991 172.104 170.116 170.485C172.342 168.765 174.821 167.247 177.553 165.932C180.285 164.516 182.916 163.402 185.446 162.593C187.976 161.783 189.544 161.379 190.151 161.379C193.187 161.379 195.666 161.986 197.589 163.2C199.613 164.414 201.181 165.983 202.294 167.905C203.508 169.828 204.368 171.953 204.874 174.28C205.38 176.506 205.633 178.681 205.633 180.806ZM258.564 200.386C258.666 200.588 258.716 200.891 258.716 201.296C258.716 201.903 258.261 202.814 257.35 204.028C257.047 204.433 256.389 205.091 255.377 206.001C254.365 206.912 252.999 207.823 251.279 208.733C249.559 209.644 247.434 210.453 244.904 211.162C242.475 211.87 239.592 212.224 236.252 212.224C233.925 212.224 231.648 211.718 229.422 210.706C227.196 209.593 225.223 208.025 223.502 206.001C221.782 203.876 220.365 201.296 219.252 198.26C218.139 195.124 217.583 191.481 217.583 187.333C217.583 183.386 218.089 179.693 219.101 176.253C220.112 172.813 221.377 169.777 222.895 167.146C224.514 164.516 226.285 162.441 228.208 160.923C230.13 159.406 232.002 158.647 233.824 158.647C235.443 158.647 237.062 159.001 238.681 159.709C240.401 160.316 241.919 161.126 243.234 162.137C244.651 163.149 245.764 164.313 246.574 165.628C247.383 166.843 247.788 168.107 247.788 169.423C247.788 170.941 247.079 172.509 245.663 174.128C244.347 175.747 242.728 177.265 240.806 178.681C238.883 179.997 236.961 181.11 235.038 182.02C233.115 182.83 231.597 183.235 230.484 183.235C229.877 183.235 229.321 182.982 228.815 182.476C228.41 181.869 228.208 181.16 228.208 180.351C228.208 178.934 228.815 177.821 230.029 177.012C231.345 176.202 232.761 175.494 234.279 174.887C235.797 174.178 237.163 173.369 238.377 172.458C239.693 171.548 240.35 170.283 240.35 168.664C240.35 168.462 240.097 167.956 239.592 167.146C239.085 166.337 237.719 165.932 235.493 165.932C234.481 165.932 233.318 166.539 232.002 167.753C230.687 168.866 229.422 170.435 228.208 172.458C226.994 174.381 225.981 176.708 225.172 179.44C224.362 182.071 223.958 184.955 223.958 188.092C223.958 190.722 224.413 193.1 225.324 195.225C226.336 197.35 227.6 199.171 229.118 200.689C230.636 202.106 232.407 203.219 234.431 204.028C236.455 204.838 238.529 205.243 240.654 205.243C242.172 205.243 243.791 204.939 245.511 204.332C247.332 203.624 249.002 202.915 250.52 202.207C252.139 201.397 253.505 200.689 254.618 200.082C255.832 199.374 256.591 199.02 256.895 199.02C257.198 199.02 257.502 199.171 257.806 199.475C258.21 199.778 258.463 200.082 258.564 200.386ZM314.821 197.654C314.821 198.26 314.618 198.868 314.214 199.475C313.809 200.082 313.303 200.639 312.696 201.144C312.19 201.65 311.582 202.106 310.874 202.51C310.267 202.814 309.711 202.966 309.205 202.966C307.484 202.966 305.258 202.612 302.526 201.903C299.895 201.094 297.77 199.879 296.151 198.26C294.431 196.54 292.913 194.517 291.598 192.189C290.282 189.761 288.815 186.219 287.196 181.565C286.083 186.017 284.767 190.419 283.249 194.77C281.833 199.121 279.506 203.117 276.267 206.76C276.065 206.963 275.762 207.064 275.357 207.064C274.648 207.064 273.89 206.71 273.08 206.001C272.27 205.293 271.866 204.585 271.866 203.876C271.866 203.168 271.765 201.549 271.562 199.02C271.461 196.389 271.309 193.505 271.107 190.368C270.904 187.13 270.702 183.892 270.5 180.654C270.398 177.315 270.348 174.583 270.348 172.458C270.348 171.447 270.398 170.131 270.5 168.512C270.601 166.792 270.904 165.325 271.41 164.111C271.512 163.908 271.866 163.503 272.473 162.897C273.181 162.289 273.94 161.986 274.75 161.986C275.458 161.986 275.863 162.441 275.964 163.352C276.065 164.263 276.116 165.274 276.116 166.387V190.368C276.116 190.874 276.166 191.583 276.267 192.493C276.47 193.404 276.723 194.061 277.026 194.466C278.139 192.038 279.151 189.204 280.062 185.967C281.074 182.628 282.035 179.491 282.946 176.557C283.857 173.521 284.767 170.991 285.678 168.968C286.589 166.843 287.499 165.78 288.41 165.78C289.422 165.78 290.232 165.983 290.839 166.387C291.446 166.792 291.952 167.602 292.357 168.816C292.863 171.75 293.267 174.381 293.571 176.708C293.874 178.934 294.229 180.958 294.633 182.779C295.139 184.6 295.797 186.321 296.607 187.94C297.517 189.457 298.732 190.874 300.249 192.189C301.666 193.505 303.234 194.466 304.955 195.073C306.776 195.68 308.345 195.984 309.66 195.984C310.267 195.984 310.925 195.883 311.633 195.68C312.342 195.377 312.847 195.225 313.151 195.225C313.556 195.225 313.91 195.579 314.214 196.288C314.618 196.996 314.821 197.451 314.821 197.654ZM331.602 146.505C331.602 146.707 331.248 147.111 330.54 147.719C329.831 148.326 328.971 148.984 327.959 149.692C327.049 150.299 326.087 150.856 325.075 151.361C324.064 151.867 323.254 152.12 322.647 152.12C322.242 152.12 321.686 152.12 320.977 152.12C320.37 152.019 319.713 151.817 319.004 151.513C318.397 151.21 317.84 150.805 317.335 150.299C316.829 149.692 316.576 148.933 316.576 148.022C316.576 146.606 317.082 145.29 318.093 144.076C319.105 142.761 320.421 142.103 322.04 142.103C322.343 142.103 323.001 142.255 324.013 142.558C325.126 142.761 326.239 143.064 327.352 143.469C328.465 143.874 329.427 144.329 330.236 144.835C331.147 145.341 331.602 145.897 331.602 146.505ZM336.611 203.269C336.611 203.978 336.055 204.585 334.941 205.091C333.93 205.596 333.171 205.849 332.665 205.849C331.653 205.849 330.742 205.192 329.933 203.876C329.123 202.561 328.415 201.043 327.808 199.323C327.201 197.603 326.695 195.984 326.29 194.466C325.885 192.847 325.582 191.734 325.379 191.127C325.075 190.115 324.671 188.901 324.165 187.484C323.659 186.068 323.153 184.702 322.647 183.386C322.242 182.071 321.888 180.907 321.585 179.895C321.281 178.884 321.129 178.327 321.129 178.226C321.129 176.809 321.382 175.494 321.888 174.28C322.495 173.066 323.204 172.458 324.013 172.458C324.924 172.458 325.885 173.167 326.897 174.583C327.909 176 328.87 177.821 329.781 180.047C330.793 182.172 331.703 184.55 332.513 187.181C333.322 189.71 334.031 192.139 334.638 194.466C335.245 196.692 335.701 198.665 336.004 200.386C336.409 202.005 336.611 202.966 336.611 203.269ZM396.152 191.127C396.152 192.038 395.545 192.999 394.33 194.011C393.116 195.023 391.7 195.984 390.081 196.895C388.461 197.704 386.792 198.412 385.072 199.02C383.453 199.627 382.238 199.93 381.429 199.93C380.518 199.93 379.506 199.677 378.393 199.171C377.381 198.665 376.37 198.058 375.357 197.35C374.447 196.642 373.637 195.984 372.929 195.377C372.221 194.77 371.765 194.365 371.563 194.163C371.259 194.466 370.804 195.073 370.197 195.984C369.59 196.895 368.831 197.907 367.92 199.02C367.11 200.031 366.2 200.942 365.188 201.751C364.277 202.561 363.316 202.966 362.304 202.966C359.673 202.966 357.396 201.549 355.474 198.716C353.551 195.883 351.932 192.645 350.617 189.002C349.403 185.36 348.441 181.869 347.733 178.529C347.126 175.089 346.822 172.762 346.822 171.548C346.822 170.839 347.176 170.283 347.885 169.878C348.694 169.372 349.301 169.119 349.706 169.119C351.123 169.119 352.084 169.625 352.59 170.637C353.096 171.548 353.349 172.559 353.349 173.673C353.349 174.583 353.602 176.202 354.108 178.529C354.715 180.857 355.423 183.235 356.233 185.663C357.042 188.091 357.902 190.267 358.813 192.189C359.724 194.011 360.533 194.922 361.241 194.922C362.557 194.922 363.67 194.112 364.581 192.493C365.593 190.773 366.402 188.85 367.009 186.726C367.617 184.499 368.072 182.425 368.375 180.503C368.679 178.479 368.831 177.163 368.831 176.557C368.831 176.455 368.831 176.152 368.831 175.646C368.932 175.039 369.033 174.431 369.134 173.824C369.236 173.217 369.286 172.661 369.286 172.155C369.387 171.649 369.438 171.295 369.438 171.092C369.438 170.384 369.286 169.929 368.983 169.726C368.679 169.423 368.527 168.866 368.527 168.057C368.527 167.45 368.831 166.893 369.438 166.387C370.045 165.78 371.36 165.477 373.384 165.477C374.194 165.477 374.801 165.73 375.206 166.236C375.712 166.64 376.066 167.146 376.268 167.753C376.471 168.36 376.572 168.968 376.572 169.575C376.673 170.081 376.724 170.435 376.724 170.637C376.724 170.738 376.673 171.447 376.572 172.762C376.471 174.077 376.37 175.544 376.268 177.163C376.268 178.681 376.218 180.148 376.116 181.565C376.015 182.982 375.965 183.842 375.965 184.145C375.965 184.449 376.116 185.056 376.42 185.967C376.724 186.877 377.078 187.838 377.483 188.85C377.989 189.761 378.545 190.621 379.152 191.431C379.759 192.139 380.417 192.493 381.125 192.493C382.34 192.493 383.453 192.341 384.465 192.038C385.578 191.633 386.59 191.228 387.5 190.823C388.512 190.318 389.423 189.913 390.232 189.609C391.042 189.204 391.801 189.002 392.509 189.002C393.42 189.002 394.229 189.204 394.938 189.609C395.747 190.014 396.152 190.52 396.152 191.127ZM457.798 185.208C457.798 186.017 457.697 186.827 457.494 187.636C457.392 188.446 457.088 188.952 456.584 189.154C454.561 190.065 451.929 190.874 448.691 191.583C445.454 192.189 442.468 193.05 439.735 194.163C438.016 194.871 435.889 195.832 433.362 197.046C430.831 198.26 428.2 199.475 425.468 200.689C422.735 201.903 420.104 202.966 417.575 203.876C415.045 204.686 412.971 205.091 411.352 205.091C410.036 205.091 408.771 204.585 407.557 203.573C406.343 202.561 405.736 201.498 405.736 200.386C405.736 198.362 406.647 195.933 408.468 193.1C410.39 190.166 412.566 187.181 414.995 184.145C417.524 181.11 419.953 178.226 422.28 175.494C424.709 172.661 426.429 170.384 427.441 168.664C427.34 168.664 427.188 168.613 426.985 168.512C426.783 168.31 426.48 168.209 426.075 168.209C422.938 169.221 420.003 170.131 417.271 170.941C414.944 171.649 412.515 172.307 409.985 172.914C407.557 173.42 405.584 173.673 404.066 173.673C403.054 173.673 402.245 173.217 401.637 172.307C401.132 171.396 400.879 170.384 400.879 169.271C400.879 168.968 400.929 168.664 401.031 168.36C401.233 168.057 401.587 167.905 402.093 167.905C403.408 167.602 405.382 167.096 408.013 166.387C410.745 165.679 413.629 164.971 416.664 164.263C419.7 163.453 422.584 162.795 425.316 162.289C428.149 161.682 430.324 161.379 431.843 161.379C432.956 161.379 434.118 161.834 435.333 162.745C436.648 163.554 437.66 164.617 438.37 165.932L415.753 194.922L414.843 196.743C414.843 197.148 414.995 197.35 415.298 197.35C416.108 197.35 417.221 196.996 418.637 196.288C420.155 195.579 422.179 194.567 424.709 193.252C427.34 191.937 430.678 190.368 434.727 188.547C438.874 186.726 443.984 184.752 450.057 182.628C451.068 182.324 452.03 182.172 452.941 182.172C454.459 182.172 455.622 182.526 456.43 183.235C457.343 183.943 457.798 184.6 457.798 185.208Z" fill="white"/>
</g>
<defs>
<clipPath id="clip0_1322_1266">
<rect width="318.827" height="171" fill="white" transform="translate(139 83)"/>
</clipPath>
</defs>
</svg>
