<svg width="12" height="15" viewBox="0 0 12 15" fill="none" xmlns="http://www.w3.org/2000/svg">
<path d="M8.39774 2.13749V1.57458C8.39774 1.15697 8.23185 0.756473 7.93656 0.461183C7.64127 0.165892 7.24077 0 6.82317 0H4.72373C4.30613 0 3.90563 0.165892 3.61034 0.461183C3.31505 0.756473 3.14915 1.15697 3.14915 1.57458V2.13749C2.27532 2.26486 1.47642 2.70221 0.898278 3.36972C0.320139 4.03723 0.00131496 4.89038 0 5.77345V13.6463C0 13.9247 0.110595 14.1917 0.307455 14.3886C0.504316 14.5855 0.771315 14.6961 1.04972 14.6961H10.4972C10.7756 14.6961 11.0426 14.5855 11.2394 14.3886C11.4363 14.1917 11.5469 13.9247 11.5469 13.6463V5.77345C11.5456 4.89038 11.2268 4.03723 10.6486 3.36972C10.0705 2.70221 9.27158 2.26486 8.39774 2.13749ZM4.72373 1.04972H6.82317C6.96237 1.04972 7.09587 1.10502 7.1943 1.20345C7.29273 1.30188 7.34803 1.43538 7.34803 1.57458V2.09944H4.19887V1.57458C4.19887 1.43538 4.25417 1.30188 4.3526 1.20345C4.45103 1.10502 4.58453 1.04972 4.72373 1.04972ZM8.39774 9.97232H3.14915V9.44746C3.14915 9.30826 3.20445 9.17476 3.30288 9.07633C3.40131 8.9779 3.53481 8.9226 3.67401 8.9226H7.87289C8.01209 8.9226 8.14559 8.9779 8.24402 9.07633C8.34245 9.17476 8.39774 9.30826 8.39774 9.44746V9.97232ZM3.14915 11.022H6.29831V11.5469C6.29831 11.6861 6.35361 11.8196 6.45204 11.918C6.55047 12.0165 6.68397 12.0718 6.82317 12.0718C6.96237 12.0718 7.09587 12.0165 7.1943 11.918C7.29273 11.8196 7.34803 11.6861 7.34803 11.5469V11.022H8.39774V13.6463H3.14915V11.022ZM10.4972 13.6463H9.44746V9.44746C9.44746 9.02986 9.28157 8.62936 8.98628 8.33407C8.69099 8.03878 8.29049 7.87289 7.87289 7.87289H3.67401C3.25641 7.87289 2.85591 8.03878 2.56062 8.33407C2.26533 8.62936 2.09944 9.02986 2.09944 9.44746V13.6463H1.04972V5.77345C1.04972 5.07744 1.32621 4.40994 1.81836 3.91779C2.31051 3.42564 2.97801 3.14915 3.67401 3.14915H7.87289C8.56889 3.14915 9.23639 3.42564 9.72854 3.91779C10.2207 4.40994 10.4972 5.07744 10.4972 5.77345V13.6463ZM7.34803 5.24859C7.34803 5.38779 7.29273 5.52129 7.1943 5.61972C7.09587 5.71815 6.96237 5.77345 6.82317 5.77345H4.72373C4.58453 5.77345 4.45103 5.71815 4.3526 5.61972C4.25417 5.52129 4.19887 5.38779 4.19887 5.24859C4.19887 5.10939 4.25417 4.97589 4.3526 4.87746C4.45103 4.77903 4.58453 4.72373 4.72373 4.72373H6.82317C6.96237 4.72373 7.09587 4.77903 7.1943 4.87746C7.29273 4.97589 7.34803 5.10939 7.34803 5.24859Z" fill="#00235E"/>
</svg>
