<svg width="14" height="13" viewBox="0 0 14 13" fill="none" xmlns="http://www.w3.org/2000/svg">
<path d="M6.1875 6.1875V0.5625C6.1875 0.413316 6.24676 0.270242 6.35225 0.164753C6.45774 0.0592633 6.60082 0 6.75 0C6.89918 0 7.04226 0.0592633 7.14775 0.164753C7.25324 0.270242 7.3125 0.413316 7.3125 0.5625V6.1875C7.3125 6.33668 7.25324 6.47976 7.14775 6.58525C7.04226 6.69074 6.89918 6.75 6.75 6.75C6.60082 6.75 6.45774 6.69074 6.35225 6.58525C6.24676 6.47976 6.1875 6.33668 6.1875 6.1875ZM10.4323 0.653906C10.3073 0.574947 10.1564 0.548326 10.012 0.5798C9.86755 0.611273 9.74134 0.698312 9.6606 0.822099C9.57986 0.945887 9.55108 1.09648 9.58049 1.24131C9.60989 1.38615 9.69512 1.51359 9.81773 1.59609C11.4427 2.6557 12.375 4.32914 12.375 6.1875C12.375 7.67934 11.7824 9.11008 10.7275 10.165C9.67258 11.2199 8.24184 11.8125 6.75 11.8125C5.25816 11.8125 3.82742 11.2199 2.77252 10.165C1.71763 9.11008 1.125 7.67934 1.125 6.1875C1.125 4.32914 2.05734 2.6557 3.68227 1.59609C3.80489 1.51359 3.89011 1.38615 3.91951 1.24131C3.94892 1.09648 3.92014 0.945887 3.8394 0.822099C3.75866 0.698312 3.63245 0.611273 3.48805 0.5798C3.34365 0.548326 3.19266 0.574947 3.06773 0.653906C1.11797 1.92516 0 3.94172 0 6.1875C2.66762e-08 7.97771 0.711159 9.6946 1.97703 10.9605C3.2429 12.2263 4.95979 12.9375 6.75 12.9375C8.54021 12.9375 10.2571 12.2263 11.523 10.9605C12.7888 9.6946 13.5 7.97771 13.5 6.1875C13.5 3.94172 12.382 1.92516 10.4323 0.653906Z" fill="#00235E"/>
</svg>
