<svg width="18" height="18" viewBox="0 0 18 18" fill="none" xmlns="http://www.w3.org/2000/svg">
<path d="M8.83322 5.52106C8.17808 5.52106 7.53766 5.71533 6.99293 6.0793C6.4482 6.44328 6.02364 6.96061 5.77293 7.56588C5.52222 8.17115 5.45662 8.83717 5.58443 9.47972C5.71224 10.1223 6.02772 10.7125 6.49097 11.1757C6.95423 11.639 7.54445 11.9545 8.187 12.0823C8.82955 12.2101 9.49557 12.1445 10.1008 11.8938C10.7061 11.6431 11.2234 11.2185 11.5874 10.6738C11.9514 10.1291 12.1457 9.48863 12.1457 8.8335C12.1447 7.95526 11.7955 7.11326 11.1745 6.49226C10.5535 5.87125 9.71145 5.52197 8.83322 5.52106ZM8.83322 11.0418C8.39646 11.0418 7.96951 10.9123 7.60636 10.6696C7.24321 10.427 6.96017 10.0821 6.79302 9.67857C6.62588 9.27506 6.58215 8.83105 6.66736 8.40268C6.75257 7.97431 6.96289 7.58083 7.27172 7.272C7.58056 6.96316 7.97404 6.75284 8.4024 6.66763C8.83077 6.58243 9.27479 6.62616 9.6783 6.7933C10.0818 6.96044 10.4267 7.24348 10.6693 7.60663C10.912 7.96979 11.0415 8.39674 11.0415 8.8335C11.0415 9.41917 10.8089 9.98086 10.3947 10.395C9.98058 10.8091 9.4189 11.0418 8.83322 11.0418ZM14.906 8.98256C14.9088 8.88318 14.9088 8.78381 14.906 8.68444L15.9356 7.39811C15.9896 7.33057 16.027 7.25129 16.0447 7.16667C16.0625 7.08204 16.0601 6.99444 16.0378 6.9109C15.869 6.27643 15.6165 5.66725 15.287 5.09941C15.2438 5.0251 15.1839 4.96189 15.112 4.91481C15.0401 4.86772 14.9583 4.83807 14.8729 4.82821L13.236 4.64602C13.1679 4.57425 13.0989 4.50524 13.029 4.43899L12.8358 2.79796C12.8258 2.71253 12.7961 2.63061 12.7488 2.55872C12.7016 2.48684 12.6383 2.42697 12.5639 2.3839C11.9958 2.05497 11.3867 1.80273 10.7524 1.63377C10.6688 1.61155 10.5811 1.60928 10.4965 1.62714C10.4119 1.645 10.3326 1.68249 10.2652 1.7366L8.98228 2.76069C8.88291 2.76069 8.78353 2.76069 8.68416 2.76069L7.39783 1.73315C7.33029 1.67916 7.25102 1.64179 7.16639 1.62405C7.08177 1.60631 6.99416 1.60869 6.91063 1.63101C6.27626 1.8001 5.66712 2.05258 5.09914 2.38183C5.02483 2.42498 4.96161 2.48488 4.91453 2.55676C4.86745 2.62864 4.83779 2.71052 4.82793 2.79589L4.64575 4.43554C4.57398 4.50409 4.50497 4.5731 4.43872 4.64257L2.79768 4.83097C2.71226 4.8409 2.63034 4.87066 2.55845 4.91787C2.48656 4.96507 2.4267 5.02842 2.38363 5.10286C2.05469 5.67092 1.80246 6.28005 1.6335 6.91435C1.61127 6.99794 1.609 7.08558 1.62686 7.1702C1.64472 7.25483 1.68222 7.33408 1.73632 7.40156L2.76042 8.68444C2.76042 8.78381 2.76042 8.88318 2.76042 8.98256L1.73287 10.2689C1.67888 10.3364 1.64151 10.4157 1.62377 10.5003C1.60603 10.5849 1.60842 10.6726 1.63074 10.7561C1.79953 11.3906 2.05202 11.9997 2.38156 12.5676C2.42471 12.6419 2.4846 12.7051 2.55649 12.7522C2.62837 12.7993 2.71025 12.8289 2.79561 12.8388L4.43251 13.021C4.50106 13.0927 4.57007 13.1617 4.63954 13.228L4.83069 14.869C4.84063 14.9545 4.87039 15.0364 4.91759 15.1083C4.9648 15.1802 5.02815 15.24 5.10259 15.2831C5.67065 15.612 6.27977 15.8643 6.91408 16.0332C6.99766 16.0554 7.0853 16.0577 7.16993 16.0399C7.25456 16.022 7.3338 15.9845 7.40128 15.9304L8.68416 14.9063C8.78353 14.9091 8.88291 14.9091 8.98228 14.9063L10.2686 15.9359C10.3361 15.9899 10.4154 16.0273 10.5 16.045C10.5847 16.0628 10.6723 16.0604 10.7558 16.038C11.3903 15.8693 11.9995 15.6168 12.5673 15.2872C12.6416 15.2441 12.7048 15.1842 12.7519 15.1123C12.799 15.0404 12.8286 14.9585 12.8385 14.8732L13.0207 13.2363C13.0925 13.1682 13.1615 13.0992 13.2277 13.0293L14.8688 12.836C14.9542 12.8261 15.0361 12.7963 15.108 12.7491C15.1799 12.7019 15.2397 12.6386 15.2828 12.5641C15.6118 11.9961 15.864 11.3869 16.0329 10.7526C16.0552 10.6691 16.0574 10.5814 16.0396 10.4968C16.0217 10.4122 15.9842 10.3329 15.9301 10.2654L14.906 8.98256ZM13.795 8.534C13.8067 8.73349 13.8067 8.9335 13.795 9.133C13.7868 9.26958 13.8295 9.40435 13.9151 9.51117L14.8943 10.7347C14.7819 11.0918 14.6381 11.4382 14.4644 11.7698L12.9048 11.9465C12.7689 11.9616 12.6435 12.0265 12.5528 12.1287C12.42 12.2781 12.2785 12.4196 12.1291 12.5524C12.0269 12.6431 11.962 12.7685 11.9469 12.9043L11.7737 14.4626C11.4421 14.6363 11.0957 14.7802 10.7386 14.8925L9.51434 13.9133C9.41638 13.835 9.29469 13.7924 9.1693 13.7925H9.13617C8.93668 13.8042 8.73667 13.8042 8.53717 13.7925C8.40059 13.7843 8.26582 13.8271 8.159 13.9126L6.93202 14.8925C6.57492 14.7801 6.22851 14.6363 5.89688 14.4626L5.72022 12.905C5.70514 12.7692 5.64023 12.6438 5.53803 12.5531C5.38864 12.4203 5.24715 12.2788 5.11432 12.1294C5.02359 12.0272 4.89819 11.9623 4.76237 11.9472L3.20415 11.7733C3.03037 11.4417 2.8865 11.0953 2.77422 10.7381L3.75346 9.51393C3.83896 9.4071 3.88176 9.27234 3.87353 9.13576C3.8618 8.93626 3.8618 8.73625 3.87353 8.53676C3.88176 8.40018 3.83896 8.26541 3.75346 8.15859L2.77422 6.93229C2.88658 6.57519 3.03046 6.22879 3.20415 5.89716L4.76168 5.72049C4.8975 5.70542 5.0229 5.6405 5.11363 5.53831C5.24646 5.38891 5.38795 5.24743 5.53734 5.11459C5.63994 5.02381 5.70513 4.89812 5.72022 4.76196L5.89343 3.20442C6.22502 3.03065 6.57144 2.88677 6.92857 2.77449L8.15279 3.75373C8.25961 3.83924 8.39438 3.88203 8.53096 3.87381C8.73046 3.86208 8.93047 3.86208 9.12996 3.87381C9.26654 3.88203 9.40131 3.83924 9.50813 3.75373L10.7344 2.77449C11.0915 2.88686 11.4379 3.03073 11.7696 3.20442L11.9462 4.76196C11.9613 4.89778 12.0262 5.02318 12.1284 5.1139C12.2778 5.24674 12.4193 5.38822 12.5521 5.53762C12.6428 5.63981 12.7683 5.70473 12.9041 5.7198L14.4623 5.89302C14.6361 6.22461 14.7799 6.57102 14.8922 6.92815L13.913 8.15238C13.8267 8.2601 13.7838 8.39625 13.7929 8.534H13.795Z" fill="#00235E"/>
</svg>
